<?xml version="1.0" encoding="iso-8859-1"?>
<!-- Generator: Adobe Illustrator 19.0.0, SVG Export Plug-In . SVG Version: 6.00 Build 0)  -->
<svg version="1.1" id="Layer_1" xmlns="http://www.w3.org/2000/svg" xmlns:xlink="http://www.w3.org/1999/xlink" x="0px" y="0px"
	 viewBox="0 0 330.002 330.002" style="enable-background:new 0 0 330.002 330.002;" xml:space="preserve">
<g id="XMLID_229_">
	<path id="XMLID_230_" d="M194.326,161.288c3.579,3.58,6.81,7.378,9.699,11.349c6.367,8.752,11.055,18.354,14.068,28.357
		l98.76-98.759c8.479-8.479,13.148-19.751,13.148-31.741c0-11.989-4.67-23.261-13.147-31.737
		c-17.499-17.5-45.976-17.499-63.477,0.001l-98.723,98.721c10.143,3.057,19.697,7.809,28.325,14.102
		C186.97,154.492,190.766,157.73,194.326,161.288z"/>
	<path id="XMLID_231_" d="M29.498,274.674c39.594,39.594,104.018,39.594,143.614,0c0,0,0,0,0.001-0.001
		c13.119-13.12,19.446-30.488,19.019-47.718c-0.282-11.387-3.523-22.704-9.722-32.703c-2.59-4.177-5.677-8.129-9.298-11.75
		c-3.59-3.59-7.534-6.694-11.743-9.311c-9.755-6.066-20.965-9.432-32.709-9.718c-0.545-0.014-1.089-0.039-1.637-0.04
		c-17.424-0.001-33.791,6.771-46.088,19.066c0,0.001,0,0.001-0.002,0.002c-15.827,15.828-39.539,20.709-60.403,12.435
		c-4.79-1.899-10.22-1.208-14.38,1.832c-0.631,0.461-1.219,0.965-1.762,1.508c-3.043,3.043-4.654,7.275-4.353,11.637
		C1.724,234.365,12.188,257.365,29.498,274.674z"/>
</g>
<g>
</g>
<g>
</g>
<g>
</g>
<g>
</g>
<g>
</g>
<g>
</g>
<g>
</g>
<g>
</g>
<g>
</g>
<g>
</g>
<g>
</g>
<g>
</g>
<g>
</g>
<g>
</g>
<g>
</g>
</svg>
